<?xml version="1.0" encoding="iso-8859-1"?>
<!-- Uploaded to: SVG Repo, www.svgrepo.com, Generator: SVG Repo Mixer Tools -->
<svg fill="#000000" height="800px" width="800px" version="1.1" id="Capa_1" xmlns="http://www.w3.org/2000/svg" xmlns:xlink="http://www.w3.org/1999/xlink" 
	 viewBox="0 0 487.6 487.6" xml:space="preserve">
<g>
	<path d="M19.5,397.525h27.7v64.6c0,4.4,5.3,6.6,8.4,3.5l68.1-68.1h195.4c10.8,0,19.5-8.7,19.5-19.5v-114.9h11.2l59.3,59.3
		c3.8,3.8,8.8,5.9,14.2,5.9c5.1,0,10-1.9,13.8-5.4c4-3.8,6.3-9.1,6.3-14.7v-45.1h10.4c18.6,0,33.8-15.2,33.8-33.8v-175
		c0-18.6-15.2-33.8-33.8-33.8H173.1c-18.6,0-33.8,15.2-33.8,33.8v117.4H19.5c-10.8,0-19.5,8.7-19.5,19.5v186.8
		C0,388.825,8.7,397.525,19.5,397.525z M170.2,54.325c0-1.6,1.3-2.8,2.8-2.8h280.8c1.6,0,2.8,1.3,2.8,2.8v175c0,1.6-1.3,2.8-2.8,2.8
		h-41.5v49.8l-49.8-49.8h-23.9v-41c0-10.8-8.7-19.5-19.5-19.5H170.2V54.325z M131.1,301.125H98.2v-32.9h32.9V301.125z
		 M185.8,301.125h-33v-32.9h33V301.125z M240.4,301.125h-32.9v-32.9h32.9V301.125z"/>
</g>
</svg>